<svg id="Layer_1" data-name="Layer 1" xmlns="http://www.w3.org/2000/svg" viewBox="0 0 500 75.37"><defs><style>.cls-1{fill:#706f6f;}</style></defs><g id="g10"><path id="path164" class="cls-1" d="M357.65,462.32c-28.74,0-34.24,8.39-34.24,37.77,0,29.19,5.5,37.59,34.24,37.59s34.1-8.4,34.1-37.59C391.75,470.71,386.5,462.32,357.65,462.32Zm358.22,0c-28.73,0-34.24,8.39-34.24,37.77,0,29.19,5.51,37.59,34.24,37.59S750,529.28,750,500.09C750,470.71,744.73,462.32,715.87,462.32Zm-283.45,0c-24.23,0-33.68,7.23-33.68,22.93,0,13.32,3.31,17.32,18.36,21.55l15.09,3.74c4.54,1.09,5.49,2.39,5.49,5.2,0,4-3.65,4.92-17,4.92-11.19,0-20.45-.63-20.45-.63l-.1,16.47s13.24,1.18,25.4,1.18c23.37,0,34.36-5.17,34.36-22.81,0-11.76-1.88-17.89-16.91-21.66l-15.4-3.45c-5-1.05-6.6-2.24-6.6-5.36,0-4.09,2.84-4.84,13.93-4.84,9.9,0,19.91.52,19.91.52l.21-16.59S443.7,462.32,432.42,462.32ZM604,463.39l20.35,73.2h34.11l20.25-73.2H654.63l-13.19,60.29-13.32-60.29Zm-103.34,0v16.45h19.7v56.73h23.78V479.86h19.6V463.41Zm-32.32,0V536.6h23.91V463.41Zm103.81,0V536.6h23.89V463.41Zm-322.18,0v73.16h23.88V514h7.32c28,0,35.22-4.4,35.22-24.54,0-22-6.59-26-37-26Zm107.65,15.7c10,0,10.53,1.28,10.53,21s-.54,20.9-10.53,20.9-10.45-1.3-10.45-20.9S347.61,479.13,357.65,479.13Zm358.22,0c10,0,10.56,1.28,10.56,21s-.55,20.9-10.56,20.9-10.44-1.3-10.44-20.9S705.89,479.13,715.87,479.13Zm-442,0h7.88c10.32,0,10.84.11,10.84,10.29,0,8.75-.52,9.71-10.84,9.71-3,0-5.84,0-7.88-.11Z" transform="translate(-250 -462.32)"/></g></svg>